<?xml version="1.0" encoding="UTF-8"?><svg xmlns="http://www.w3.org/2000/svg" xmlns:xlink="http://www.w3.org/1999/xlink" height="505.4" preserveAspectRatio="xMidYMid meet" version="1.0" viewBox="-2.4 -3.9 274.1 505.4" width="274.1" zoomAndPan="magnify"><g id="change1_1"><path d="M157.65,496.11c-5.34-5.16-4.86-13.9-0.62-19.58c1.74-2.34,3.94-4.32,5.82-6.55 c6.24-7.15,11.96-14.85,15.91-23.52c8.97-19.99,10.19-43.25,3.13-64.02c-4.59-13.35-13.2-24.77-22.26-35.42 c-23.8,14-50.6,23.64-78.35,24.83c-27.74,1.18-60.06-7.37-75.3-32.4c-7.52-12.86-8.39-30.18-0.08-42.88 c5.6-8.5,14.25-14.41,23.41-18.54c23.84-10.52,51.12-6.88,75.4,0.23c21.58,6.08,41.7,16.86,58.69,31.48 c35.54-27.64,61.3-65,49.64-111.71c-23.41,17.88-66.19,24.85-94.18,16.56c-30.82-8.31-48.42-37.34-40.42-68.43 c8.62-36.21,51.58-50.38,84.8-42.75c24.3,6.2,44.48,23.64,58.94,43.63c9.58-15.18,17.34-33.23,18.77-51.15 c0.24-12.77-1.34-26.29-9.62-36.55c-8.04-9.65-18.37-17.42-29.24-23.61c-7.46-3.57-15.38-6.49-23.65-7.36 c-3.28-0.13-6.47,0.78-9.74,0.86c-13.29,0.58-19.96-15.69-9.43-24.17c13.92-9,31.87-4.35,46.36,0.91 c13.35,4.97,25.14,13.34,35.82,22.63c5.01,4.43,9.82,9.09,13.74,14.55c13.18,17.56,16.46,40.66,13.85,62.03 c-4.28,25.82-15.73,50.58-32.33,70.8c22.16,62.57-3.28,115.11-53.05,154.54c10.73,13.03,20.6,27.14,25.85,43.34 c9.79,29.11,7.23,62.09-6.8,89.39c-4.52,8.87-10.46,16.93-16.97,24.44c-2.72,3.02-5.26,6.26-8.4,8.85 C171.71,500.98,162.88,501.46,157.65,496.11z M82.71,342.81c19.23-1.4,37.91-7.63,54.86-16.66 c-23.21-18.45-82.19-38.69-106.53-14.99c-3.25,3.68-2.22,9.22-0.27,13.29c2.79,5.41,8.06,8.86,13.33,11.57 C56.02,342.01,69.52,343.73,82.71,342.81z M137.75,188.89c10.24,0.87,18.47-0.11,28.09-1.92c14.59-2.91,25.11-7.5,36.56-17.13 c-11.04-18.41-30.84-37.43-53.13-39.4c-13.14-0.4-27.91,2.18-37.26,12.16c-7.58,8.93-8.76,23.01-2.34,32.89 C115.93,184.48,127.39,187.66,137.75,188.89z" fill="#1CA379"/></g></svg>