<?xml version="1.0" encoding="UTF-8"?><svg xmlns="http://www.w3.org/2000/svg" xmlns:xlink="http://www.w3.org/1999/xlink" height="500.7" preserveAspectRatio="xMidYMid meet" version="1.0" viewBox="-0.6 -1.3 507.3 500.7" width="507.3" zoomAndPan="magnify"><g id="change1_1"><path d="M487.56,188.8c-18.47-1.39-37.04,3.96-55.52,5.12c-31.08,2.57-61.98,6.49-92.76,11.52 c-16.65,2.87-33.41,4.85-50.2,6.49c1.32-1.97,2.62-3.95,3.96-5.91c24.44-35.83,50.91-76.11,79.43-110.65 c7.26-9.03,14.49-18.13,20.97-27.75c6.06-7.76,11.84-20.09,2.2-27.47c-14.88-10.34-24.37,9.87-32.93,19.06 c-32.23,36.69-61.09,76.11-88.59,116.46c-9.33-48.75-21.08-97.01-29.19-146.07c-1.97-10.25-0.74-25.55-13.07-29.16 c-6.27-1.74-13.39,1.71-15.79,7.75c-1.57,3.92-1.42,8.23-1.43,12.39c0.15,11.65,1.15,23.28,3.18,34.75 c7.39,47.77,18.19,94.97,26.39,142.6c-6.38-5.16-12.76-10.33-19.15-15.47C176.59,143.48,128.7,103.8,79.47,65.81 c-6.2-5.13-11.18-12.39-18.85-15.44c-14.4-6.24-27.81,11.69-18.08,23.59c-0.03,0-0.07,0-0.1,0c12.19,15.35,27.93,27.12,43.36,39 c30.25,24.09,59.47,49.45,89.94,73.29c13.35,10.82,26.68,21.68,39.99,32.55c-5.94,0.67-11.87,1.4-17.79,2.22 c-30.97,4.34-61.81,9.57-92.77,14.02c-24.99,2.91-46.57,8.23-72.03,12.22c-10.14,1.93-23.05,0.41-30.41,8.91 c0.01,0,0.01,0,0.02,0.01c-2.48,3.26-3.36,7.58-2.33,11.73c1.54,6.17,7.22,9.89,13.25,10.68c17.72,1.2,35.53-1.87,52.95-4.87 c45.75-7.02,91.64-13.3,137.47-19.85c6.89-0.94,13.79-1.72,20.7-2.43c-28.66,46.36-57.47,92.65-84.49,139.97 c-5.73,10.55-11.05,21.37-16.12,32.25c-6.59,11.22-6.47,26.66,7.94,31c10.91,3.21,20.14-5.75,22.69-15.78 c3.36-7.86,7.28-15.47,11.07-23.13c16.42-31.17,35.27-61,53.44-91.17c11.56-19,22.91-38.12,34.48-57.11 c6.53,56.99,13.3,113.97,23.66,170.42c2.55,15.48,4.53,31.1,8.04,46.41c0.98,4.27,4.19,8.1,7.91,10.29 c7.9,4.83,19.03,1.87,23.56-6.18c4.99-8.19,0.15-17.36-0.79-26.01c-11.12-61.08-19.44-121.89-27.03-183.17 c46.44,38.51,92.58,77.37,138.34,116.7c19.35,13.59,43.84-14.67,13.26-33.91c-46.07-39.5-92.45-78.61-139.26-117.23 c30.49-3.09,60.61-9.12,91.05-12.6c30.06-2.83,60.07-6.12,90.06-9.57C502.75,222.78,506.7,194.24,487.56,188.8z" fill="#1256C4"/></g></svg>