<?xml version="1.0" encoding="UTF-8"?><svg xmlns="http://www.w3.org/2000/svg" xmlns:xlink="http://www.w3.org/1999/xlink" height="508.2" preserveAspectRatio="xMidYMid meet" version="1.0" viewBox="-2.0 -3.7 312.0 508.2" width="312.0" zoomAndPan="magnify"><g id="change1_1"><path d="M278.24,499.43c-22.87-1.46-46.35-4.6-66.7-15.81c-31.64-16.53-51.87-51.46-50.85-87.09 c-51.16,13.52-103.98-4.59-135.29-47.45C3.74,319.11-2,280.71,0.57,244.54c3.1-62.64,32.51-120.91,68.09-171.37 c15.16-20.61,51.95-64,75.17-71.95c11.87-4.96,23.84,6.18,17.55,18.13c-3.28,5.88-9.43,9.28-14.35,13.64 c-5.76,5.19-11.23,10.7-16.74,16.17c-23.27,23.44-43.31,50.04-59.1,79.06c-20.95,36.67-36.54,76.16-38.49,118.52 c-1.78,27.97,1.73,57.4,17.51,81.24c13.54,19.5,34.53,33.67,57.75,38.71c18.46,3.64,37.63,0.95,55.39-4.79 c7.26-45.72,32.79-114.4,80.97-129.65c16.97-5.08,37.04,1.98,45.8,17.68c8.91,15.28,5.76,34.13-0.1,49.92 c-15.62,42.53-55.37,70.34-96.29,85.96c-0.52,11.19-0.68,22.69,2.93,33.42c6.77,19.25,22.7,34.34,42.01,40.71 c10.04,3.32,20.49,4.96,30.98,6.02c6.8,0.87,13.76,0.59,20.48,2.02C310.04,474.4,304.33,504.5,278.24,499.43z M200.6,343.54 c-0.42,1.34-0.73,2.72-1.04,4.1c22.58-11.1,44.03-27.32,55.74-50.09c4.08-8.88,8.59-18.45,7.43-28.45c-1.6-9.31-12.86-5.1-18-1.3 c-8.67,6.05-15.28,14.53-21.35,23.07C212.86,306.97,206.13,325.21,200.6,343.54z" fill="#F985E4"/></g></svg>